<svg height="50" overflow="scroll" viewBox="0 0 50 50" width="50" xmlns="http://www.w3.org/2000/svg"><path style="fill:#FF3F51B5;" d="m24.9999371 23.7504482c-2.071476 0-3.7497902-1.6794586-3.7497902-3.7500458 0-2.0716038 1.6783142-3.7500439 3.7497902-3.7500439 2.0716019 0 3.7499161 1.6784401 3.7499161 3.7500439-.0000001 2.0705872-1.6783143 3.7500458-3.7499161 3.7500458zm0-10.0002041c-3.4509773 0-6.2502861 2.7976551-6.2502861 6.2501583 0 3.4519939 2.7993088 6.2491417 6.2502861 6.2491417 3.4511032 0 6.2491417-2.7971478 6.2491417-6.2491417 0-3.4525032-2.7980385-6.2501583-6.2491417-6.2501583zm0 27.4987145c-2.0787239.012207-12.499301-16.0222454-12.499301-21.2485561 0-6.9022074 5.5958204-12.4993 12.499301-12.4993 6.9036064 0 12.4994259 5.5970931 12.4994259 12.4993-.0000001 5.1553573-10.4536362 21.2607631-12.4994259 21.2485561zm0-36.2482252c-8.28298 0-14.9997969 6.715291-14.9997969 14.9996691 0 6.2712669 12.5054045 25.0130978 14.9997969 24.9988575 2.4544659.0142403 14.9999218-18.8125305 14.9999218-24.9988575 0-8.2843781-6.716816-14.9996691-14.9999218-14.9996691z" fill="#9ea5ab" fill-rule="evenodd"/></svg>