<svg clip-rule="evenodd" fill-rule="evenodd" height="51" image-rendering="optimizeQuality" shape-rendering="geometricPrecision" text-rendering="geometricPrecision" viewBox="0 0 10765.8 2165.1" width="254" xmlns="http://www.w3.org/2000/svg"><path d="m2779.86 1316.47v-99.38h-500.67c22.93-42.04 61.16-87.9 97.47-128.04l257.97-278.99c89.81-97.47 131.87-193.01 131.87-273.27 0-59.24-40.14-131.86-160.53-131.86h-468.2c-114.65 0-170.07 59.24-170.07 135.67v78.35h506.41c-17.19 34.4-57.33 82.18-87.9 116.57l-259.9 282.84c-97.45 105.09-156.69 204.47-156.69 282.81 0 80.26 57.32 135.68 175.81 135.68h502.58c64.97 0 131.85-57.33 131.85-120.38zm1009-231.23v-236.97c0-355.44-206.38-462.45-435.7-462.45-271.36 0-374.56 137.59-374.56 252.25v82.18h9.56c38.22-47.78 141.41-118.49 326.78-118.49 152.88 0 221.68 43.95 221.68 189.18v13.38h-89.83c-378.37 0-512.14 139.5-512.14 322.95 0 189.2 168.16 326.77 412.77 326.77h51.61c229.31 0 389.83-150.95 389.83-368.8zm-250.35 1.91c0 105.09-53.5 158.61-164.33 158.61-112.74 0-177.73-47.78-177.73-128.04 0-84.09 55.42-129.95 250.34-129.95h91.72zm1454.26-187.28c0-303.85-200.66-517.87-462.46-517.87-139.5 0-227.4 82.17-279.01 156.69v-300.01c0-120.4-68.79-177.72-168.15-177.72h-87.9v873.31c0 309.57 221.66 525.51 485.37 525.51 313.4 0 512.15-250.33 512.15-559.91zm-265.63 43.95c0 166.26-91.72 288.56-219.76 288.56-152.88 0-254.16-97.47-254.16-334.42 0-160.52 97.47-288.56 227.4-288.56 156.71 0 246.52 84.09 246.52 334.42zm1278.45 141.42v-236.97c0-355.44-206.39-462.45-435.7-462.45-271.37 0-374.56 137.59-374.56 252.25v82.18h9.55c38.22-47.78 141.42-118.49 326.78-118.49 152.88 0 221.68 43.95 221.68 189.18v13.38h-89.83c-378.37 0-512.13 139.5-512.13 322.95 0 189.2 168.16 326.77 412.76 326.77h51.61c229.31 0 389.84-150.95 389.84-368.8zm-250.35 1.91c0 105.09-53.51 158.61-164.34 158.61-112.74 0-177.72-47.78-177.72-128.04 0-84.09 55.41-129.95 250.33-129.95h91.73zm1287.99-559.93c0-84.07-32.48-122.29-120.38-122.29h-108.94c-38.2 257.99-128.03 531.25-225.48 724.26-108.94-212.13-160.52-410.86-196.84-601.97-9.55-55.41-64.96-122.29-152.88-122.29h-137.59c22.93 279 198.75 728.08 338.25 940.19 51.59 76.44 91.73 103.19 168.16 103.19h49.69c114.66-156.69 229.32-405.13 298.11-594.3 63.05-171.99 87.9-296.2 87.9-326.79zm961.23 558.02v-236.97c0-355.44-206.39-462.45-435.7-462.45-271.37 0-374.56 137.59-374.56 252.25v82.18h9.55c38.23-47.78 141.42-118.49 326.78-118.49 152.89 0 221.68 43.95 221.68 189.18v13.38h-89.83c-378.37 0-512.13 139.5-512.13 322.95 0 189.2 168.16 326.77 412.77 326.77h51.6c229.32 0 389.84-150.95 389.84-368.8zm-250.35 1.91c0 105.09-53.5 158.61-164.33 158.61-112.75 0-177.73-47.78-177.73-128.04 0-84.09 55.41-129.95 250.33-129.95h91.73zm762.48 185.35c0-89.81-74.52-164.33-164.35-164.33-89.81 0-164.33 74.52-164.33 164.33 0 89.83 74.52 164.35 164.33 164.35 89.83 0 164.35-74.52 164.35-164.35zm1226.84-372.63c0-303.85-200.66-517.87-462.46-517.87-139.5 0-227.4 82.17-279.01 156.69v-300.01c0-120.4-68.79-177.72-168.16-177.72h-87.89v873.31c0 309.57 221.66 525.51 485.37 525.51 313.4 0 512.15-250.33 512.15-559.91zm-265.63 43.95c0 166.26-91.72 288.56-219.76 288.56-152.88 0-254.16-97.47-254.16-334.42 0-160.52 97.47-288.56 227.4-288.56 156.71 0 246.52 84.09 246.52 334.42zm1060.59 271.35c47.76-110.83 227.41-580.93 227.41-689.84 0-84.09-38.23-120.4-120.4-120.4h-110.83c-22.93 210.21-116.57 521.7-200.66 714.7-93.63-181.53-170.08-395.57-206.39-594.3-13.36-72.62-78.34-120.4-149.05-120.4h-135.68c34.4 242.69 229.32 754.83 364.99 959.3-55.41 145.24-87.89 183.45-181.53 189.19l-145.23 9.55v49.69c0 95.54 84.09 158.61 179.62 158.61 185.37 0 286.65-105.11 477.75-556.1z" fill="#414256" fill-rule="nonzero"/><g fill="#f53c5a"><path d="m2243.8 1905.23v-140.35c0-95.94-53.4-119.09-118.15-119.09-29.77 0-79.86 7.56-106.32 16.06v198.01c0 29.78 17.48 45.37 47.73 45.37h15.59v-198.95c16.07-4.26 26.94-6.62 43.48-6.62 38.28 0 54.34 18.43 54.34 62.85v97.35c0 29.78 17.49 45.37 47.73 45.37zm293.94-131.85c0-67.58-43.95-129.01-120.51-129.01-82.22 0-126.17 61.43-126.17 137.99 0 67.58 43.95 128.55 120.51 128.55 82.22 0 126.17-60.97 126.17-137.53zm-65.68 8.98c0 41.59-17.96 71.83-54.83 71.83-42.05 0-60.48-30.24-60.48-80.81 0-42.06 18.43-72.31 54.82-72.31 41.58 0 60.49 30.25 60.49 81.29zm304.34 43.48c0-21.74-17.49-43.48-38.76-51.51 19.38-8.51 35.92-27.41 35.92-54.83 0-45.83-43.95-75.13-102.55-75.13-55.29 0-95.46 26.93-95.46 58.12v23.16h3.31c13.7-15.6 46.31-27.41 80.81-27.41 37.33 0 49.15 12.76 49.15 27.41 0 15.59-9.93 26.94-49.15 26.94h-38.75v19.37c0 23.63 20.32 27.41 37.8 27.41 41.59 0 52.46 12.77 52.46 30.25 0 14.18-14.18 26.46-48.21 26.46-38.75 0-66.63-9.45-84.11-27.41h-3.31v22.69c0 35.44 40.64 58.6 91.68 58.6 69 0 109.17-31.19 109.17-84.12zm268.42.94c0-18.43-13.23-43.94-39.22-56.24 21.26-10.87 34.5-29.3 34.5-52.92 0-54.82-52.93-73.25-108.22-73.25-43.48 0-79.4 10.87-102.55 20.32v158.79c0 65.68 49.14 87.43 105.38 87.43 60.49 0 110.11-26.47 110.11-84.13zm-68.52-105.86c0 21.74-13.7 29.78-43 29.78h-41.59v-51.52c15.59-4.72 25.52-6.14 41.59-6.14 29.3 0 43 7.09 43 27.88zm3.78 105.86c0 21.74-19.38 34.98-47.26 34.98-14.65 0-41.11-8.98-41.11-35.92v-30.72h43.95c33.55 0 44.42 9.92 44.42 31.66zm353.02-53.4c0-67.58-43.96-129.01-120.52-129.01-82.22 0-126.17 61.43-126.17 137.99 0 67.58 43.95 128.55 120.51 128.55 82.22 0 126.18-60.97 126.18-137.53zm-65.69 8.98c0 41.59-17.96 71.83-54.83 71.83-42.05 0-60.48-30.24-60.48-80.81 0-42.06 18.43-72.31 54.82-72.31 41.58 0 60.49 30.25 60.49 81.29zm320.41 122.87c-5.68-69-49.15-177.22-83.65-229.67-12.76-18.9-22.68-25.52-41.59-25.52h-12.29c-28.35 38.75-56.71 100.18-73.72 146.97-15.59 42.53-21.74 70.41-21.74 77.98 0 20.79 8.04 30.24 29.77 30.24h26.94c9.45-63.79 31.67-131.37 55.76-179.11 26.94 52.46 39.7 101.61 48.68 148.87 2.36 13.7 16.07 30.24 37.81 30.24zm246.21-86.01c0-52.93-41.12-93.1-102.08-93.1-19.38 0-40.64 8.98-49.62 14.18v-44.89c0-29.77-15.59-45.37-52.46-45.37h-10.86v174.38c0 69.94 58.6 86.01 109.16 86.01 66.16 0 105.86-37.8 105.86-91.21zm-64.27-1.42c0 27.41-16.07 42.54-41.12 42.54-20.79 0-46.31-9.45-46.31-34.03v-39.23c9.45-4.72 23.63-12.28 39.69-12.28 26.94 0 47.74 16.07 47.74 43zm406.89-85.53v-29.78c0-30.24-28.83-54.81-69.47-54.81-86.95 0-137.52 62.37-137.52 135.16 0 72.77 60.49 127.12 130.43 127.12 45.84 0 75.61-22.22 75.61-52.93v-29.3h-2.36c-8.98 11.81-30.72 23.63-67.11 23.63-43 0-70.41-31.67-70.41-77.98 0-37.8 32.61-67.58 69.47-67.58 36.39 0 60.49 11.82 68.99 26.47zm260.86 10.87c0-60.97-49.15-98.77-102.07-98.77-72.78 0-124.77 53.4-124.77 138.47 0 77.97 61.91 128.07 125.24 128.07 69.94 0 92.15-25.06 92.15-57.66v-19.85h-2.36c-20.32 18.9-51.51 24.1-77.98 24.1-37.33 0-66.63-20.32-71.35-52.46h41.58c84.12 0 119.56-15.12 119.56-61.9zm-59.54-7.56c0 17.96-13.7 24.57-73.72 24.57h-28.36l.48-8.51c1.41-29.3 22.68-54.34 53.39-54.34 29.3 0 48.21 12.75 48.21 38.28zm344.98 42.53c0-75.14-47.73-124.76-111.53-124.76-33.55 0-69.47 15.12-83.17 46.31h-1.42c.94-18.91 3.78-39.23 25.52-59.08 21.74-20.32 57.66-19.84 87.9-19.84h17.01c24.1 0 37.33-13.23 37.33-30.25v-25.99h-44.89c-43.48 0-98.77-.95-133.27 32.14-39.7 38.28-36.86 115.31-36.86 168.71 0 80.81 40.17 145.08 124.29 145.08 72.78 0 119.09-49.62 119.09-132.32zm-65.21 8.03c0 42.53-19.85 69-52.46 69-38.28 0-61.91-25.52-61.91-78.45 0-43.48 23.63-69 53.87-69 37.81 0 60.5 24.58 60.5 78.45zm329.85-43c0-60.97-49.15-98.77-102.07-98.77-72.78 0-124.77 53.4-124.77 138.47 0 77.97 61.91 128.07 125.24 128.07 69.94 0 92.15-25.06 92.15-57.66v-19.85h-2.36c-20.32 18.9-51.51 24.1-77.98 24.1-37.33 0-66.63-20.32-71.35-52.46h41.58c84.12 0 119.56-15.12 119.56-61.9zm-59.54-7.56c0 17.96-13.7 24.57-73.72 24.57h-28.36l.48-8.51c1.41-29.3 22.68-54.34 53.39-54.34 29.3 0 48.21 12.75 48.21 38.28zm449.9 42.53c0-75.14-47.73-124.76-111.53-124.76-33.56 0-69.47 15.12-83.18 46.31h-1.41c.94-18.91 3.77-39.23 25.52-59.08 21.74-20.32 57.65-19.84 87.89-19.84h17.02c24.1 0 37.33-13.23 37.33-30.25v-25.99h-44.89c-43.48 0-98.77-.95-133.27 32.14-39.7 38.28-36.86 115.31-36.86 168.71 0 80.81 40.17 145.08 124.29 145.08 72.77 0 119.09-49.62 119.09-132.32zm-65.22 8.03c0 42.53-19.85 69-52.45 69-38.28 0-61.91-25.52-61.91-78.45 0-43.48 23.63-69 53.87-69 37.81 0 60.49 24.58 60.49 78.45zm349.71-12.76c0-67.58-43.95-129.01-120.51-129.01-82.23 0-126.18 61.43-126.18 137.99 0 67.58 43.95 128.55 120.51 128.55 82.23 0 126.18-60.97 126.18-137.53zm-65.69 8.98c0 41.59-17.96 71.83-54.82 71.83-42.06 0-60.49-30.24-60.49-80.81 0-42.06 18.43-72.31 54.82-72.31 41.58 0 60.49 30.25 60.49 81.29zm320.41 122.87c-5.68-69-49.15-177.22-83.65-229.67-12.76-18.9-22.68-25.52-41.59-25.52h-12.28c-28.36 38.75-56.72 100.18-73.73 146.97-15.59 42.53-21.74 70.41-21.74 77.98 0 20.79 8.04 30.24 29.77 30.24h26.94c9.46-63.79 31.67-131.37 55.77-179.11 26.94 52.46 39.7 101.61 48.68 148.87 2.36 13.7 16.06 30.24 37.8 30.24zm246.21-86.01c0-52.93-41.11-93.1-102.07-93.1-19.38 0-40.65 8.98-49.63 14.18v-44.89c0-29.77-15.59-45.37-52.46-45.37h-10.86v174.38c0 69.94 58.6 86.01 109.16 86.01 66.17 0 105.86-37.8 105.86-91.21zm-64.27-1.42c0 27.41-16.07 42.54-41.12 42.54-20.79 0-46.31-9.45-46.31-34.03v-39.23c9.46-4.72 23.63-12.28 39.7-12.28 26.94 0 47.73 16.07 47.73 43zm463.6-31.19v-91.2c0-29.77-15.6-45.37-52.46-45.37h-10.87v137.52c0 44.9-16.06 63.33-48.67 63.33h-35.92v-155.48c0-29.77-15.59-45.37-52.46-45.37h-10.87v200.85h-35.91c-32.61 0-48.67-18.43-48.67-63.33v-92.15c0-29.77-15.6-45.37-52.46-45.37h-10.87v136.57c0 76.09 34.97 118.62 111.06 118.62h137.04c76.09 0 111.06-42.53 111.06-118.62zm276.46-43.47c0-60.97-49.15-98.77-102.08-98.77-72.77 0-124.76 53.4-124.76 138.47 0 77.97 61.91 128.07 125.24 128.07 69.94 0 92.15-25.06 92.15-57.66v-19.85h-2.36c-20.32 18.9-51.52 24.1-77.98 24.1-37.33 0-66.63-20.32-71.36-52.46h41.59c84.11 0 119.56-15.12 119.56-61.9zm-59.54-7.56c0 17.96-13.71 24.57-73.73 24.57h-28.35l.47-8.51c1.42-29.3 22.69-54.34 53.4-54.34 29.3 0 48.21 12.75 48.21 38.28z" fill-rule="nonzero"/><path d="m1215.36 1785.94-265.67 321.21c-28.83 36.17-56.41 57.76-94.54 57.94-38.13-.18-65.7-21.77-94.53-57.94l-592.59-716.46c-109.13-149.99-168.02-331.35-168.02-517.62 0-478.98 381.94-868.55 855.39-873.07 473.44 4.52 854.88 394.09 854.88 873.07 0 186.27-58.88 367.63-168.01 517.62l-138.09 166.96c-49.94-98.57-91.04-147.65-180.26-217.43 142.52-110.23 234.31-282.93 234.31-477.06 0-332.88-269.85-602.76-602.76-602.76-332.89 0-603.4 269.88-603.4 602.76 0 332.87 270.51 602.75 603.4 602.75 55.83 0 82.55 6.93 133.68 27.24 128.44 51.08 200.2 134.93 226.21 292.79zm-298.54-530.96c-30.27 30.26-79.79 30.25-110.03 0l-323.54-323.54c-103.13-103.13-83.91-258.12 36.89-335.09 64.41-41.05 149.71-42.78 218.08-13.56 53.35 26.81 45.35 83.27 10.28 99.64-5.75 2.69-12.24 4.3-19.29 4.52-23.67.72-32.25-10.33-52.44-15.78-38.44-10.4-81.33-.58-111.37 29.46-44.63 44.63-44.63 117.64 0 162.27l271.52 271.52c13.73 13.74 36.03 13.74 49.76 0l271.53-271.53c44.62-44.61 44.62-117.63-.01-162.26-44.62-44.63-117.64-44.64-162.27-.01l-79.48 79.48-61.73 61.74c-20.71 20.71-54.62 20.72-75.34 0-20.72-20.71-20.72-54.63 0-75.34l61.73-61.73 75.27-75.28c86.06-86.06 226.9-86.06 312.97 0 86.06 86.07 86.05 226.9 0 312.96z"/></g></svg>