<svg xmlns="http://www.w3.org/2000/svg" xmlns:xlink="http://www.w3.org/1999/xlink" preserveAspectRatio="xMidYMid" width="26" height="27" viewBox="0 0 26 27">  
  <path style="fill:#FFE91E63;" d="M25.623,26.809 C25.244,27.134 24.260,26.944 24.260,26.944 L15.713,18.213 C14.093,19.341 12.127,20.007 10.003,20.007 C4.475,20.007 -0.007,15.525 -0.007,9.998 C-0.007,4.470 4.475,-0.011 10.003,-0.011 C15.533,-0.011 20.014,4.470 20.014,9.998 C20.014,12.569 19.036,14.906 17.443,16.678 L25.997,25.476 C25.997,25.476 26.033,26.458 25.623,26.809 ZM18.017,10.006 C18.017,5.589 14.432,2.008 10.010,2.008 C5.589,2.008 2.003,5.589 2.003,10.006 C2.003,14.423 5.589,18.004 10.010,18.004 C14.432,18.004 18.017,14.423 18.017,10.006 Z" class="cls-1"/>
</svg>
