<svg width="200" height="200" xmlns="http://www.w3.org/2000/svg">
 <g>
  <title>background</title>
  <rect x="-1" y="-1" width="202" height="202" id="canvas_background" fill="none"/>
 </g>

 <g>
  <title>Layer 1</title>
  <rect stroke="#000" id="svg_4" height="267.000001" width="265" y="-31.500001" x="-32.5" fill-opacity="null" stroke-opacity="null" stroke-width="1.5" fill="#ff5656"/>
  <g stroke="null" id="svg_1">
   <path stroke="null" d="m173.5,107.429343l-2.9,-8.462141l-22.2,13.222095l0,-25.650863l11.5,-6.875489l-2.9,-8.462141l-8.6,5.156617l0,-36.757423l-7,0l0,23.535328l-8.6,-5.156617l-2.9,8.462141l11.5,6.875489l0,21.552014l-22.2,-13.222095l-2.9,8.462141l25.1,14.940967l0,40.195167l-30.2,0l0,-32.394132l8.3,4.892175l2.9,-8.462141l-48,-28.559724l-47.9,28.559724l2.9,8.462141l8.3,-4.892175l0,41.649598l70.1,0l3.5,0l37.2,0l0,-31.997469l25,-15.073188zm-128.9,37.682969l0,-36.492981l29.8,-17.717607l29.8,17.717607l0,36.492981l-59.6,0z" id="svg_2" fill="#ffffff"/>
  </g>
 </g>
</svg>